<svg xmlns="http://www.w3.org/2000/svg" xmlns:xlink="http://www.w3.org/1999/xlink" version="1.1" x="0px" y="0px" viewBox="0 0 100 125" enable-background="new 0 0 100 100" xml:space="preserve"><path d="M77.19,61.749c10.317-10.317,10.316-27.103,0-37.42c-10.317-10.317-27.102-10.317-37.419,0  c-9.284,9.284-10.208,23.803-2.784,34.135L12.655,82.797l6.068,6.068l24.332-24.332C53.387,71.957,67.906,71.032,77.19,61.749z   M45.839,55.681c-6.971-6.971-6.971-18.313,0-25.283c6.971-6.971,18.312-6.971,25.283,0c6.971,6.97,6.971,18.312,0,25.283  C64.151,62.651,52.809,62.651,45.839,55.681z"/><text x="0" y="115" fill="#000000" font-size="5px" font-weight="bold" font-family="'Helvetica Neue', Helvetica, Arial-Unicode, Arial, Sans-serif">Created by Johan Gunnarsson</text><text x="0" y="120" fill="#000000" font-size="5px" font-weight="bold" font-family="'Helvetica Neue', Helvetica, Arial-Unicode, Arial, Sans-serif">from the Noun Project</text></svg>
